<mxfile host="app.diagrams.net" modified="2021-06-29T17:37:46.726Z" agent="5.0 (Windows)" etag="50i0snmH06uTHd0P_zQA" version="14.6.13" type="github">
  <diagram id="MC6dr5WfC4aPlhTvybOS" name="Page-1">
    <mxGraphModel dx="749" dy="556" grid="1" gridSize="10" guides="1" tooltips="1" connect="1" arrows="1" fold="1" page="1" pageScale="1" pageWidth="850" pageHeight="1100" math="0" shadow="0">
      <root>
        <mxCell id="0" />
        <mxCell id="1" parent="0" />
        <mxCell id="dYZ9_OYtiXIPVYzOE8Ey-37" style="edgeStyle=orthogonalEdgeStyle;rounded=0;orthogonalLoop=1;jettySize=auto;html=1;" edge="1" parent="1" source="dYZ9_OYtiXIPVYzOE8Ey-1" target="dYZ9_OYtiXIPVYzOE8Ey-2">
          <mxGeometry relative="1" as="geometry" />
        </mxCell>
        <mxCell id="dYZ9_OYtiXIPVYzOE8Ey-1" value="API Gateway&lt;br&gt;Lambda Proxy" style="outlineConnect=0;dashed=0;verticalLabelPosition=bottom;verticalAlign=top;align=center;html=1;shape=mxgraph.aws3.api_gateway;fillColor=#D9A741;gradientColor=none;" vertex="1" parent="1">
          <mxGeometry x="250" y="32.5" width="76.5" height="93" as="geometry" />
        </mxCell>
        <mxCell id="dYZ9_OYtiXIPVYzOE8Ey-24" style="edgeStyle=orthogonalEdgeStyle;rounded=0;orthogonalLoop=1;jettySize=auto;html=1;" edge="1" parent="1" source="dYZ9_OYtiXIPVYzOE8Ey-2" target="dYZ9_OYtiXIPVYzOE8Ey-7">
          <mxGeometry relative="1" as="geometry" />
        </mxCell>
        <mxCell id="dYZ9_OYtiXIPVYzOE8Ey-36" value="Hosted UI" style="edgeLabel;html=1;align=center;verticalAlign=middle;resizable=0;points=[];" vertex="1" connectable="0" parent="dYZ9_OYtiXIPVYzOE8Ey-24">
          <mxGeometry x="0.2344" y="1" relative="1" as="geometry">
            <mxPoint y="1" as="offset" />
          </mxGeometry>
        </mxCell>
        <mxCell id="dYZ9_OYtiXIPVYzOE8Ey-38" style="edgeStyle=orthogonalEdgeStyle;rounded=0;orthogonalLoop=1;jettySize=auto;html=1;" edge="1" parent="1" source="dYZ9_OYtiXIPVYzOE8Ey-2" target="dYZ9_OYtiXIPVYzOE8Ey-3">
          <mxGeometry relative="1" as="geometry" />
        </mxCell>
        <mxCell id="dYZ9_OYtiXIPVYzOE8Ey-2" value="Authorizer&lt;br&gt;Lambda" style="outlineConnect=0;dashed=0;verticalLabelPosition=bottom;verticalAlign=top;align=center;html=1;shape=mxgraph.aws3.lambda;fillColor=#F58534;gradientColor=none;" vertex="1" parent="1">
          <mxGeometry x="387" y="32.5" width="76.5" height="93" as="geometry" />
        </mxCell>
        <mxCell id="dYZ9_OYtiXIPVYzOE8Ey-39" style="edgeStyle=orthogonalEdgeStyle;rounded=0;orthogonalLoop=1;jettySize=auto;html=1;" edge="1" parent="1" source="dYZ9_OYtiXIPVYzOE8Ey-3" target="dYZ9_OYtiXIPVYzOE8Ey-4">
          <mxGeometry relative="1" as="geometry" />
        </mxCell>
        <mxCell id="dYZ9_OYtiXIPVYzOE8Ey-3" value="Endpoint Lambda" style="outlineConnect=0;dashed=0;verticalLabelPosition=bottom;verticalAlign=top;align=center;html=1;shape=mxgraph.aws3.lambda;fillColor=#F58534;gradientColor=none;" vertex="1" parent="1">
          <mxGeometry x="540" y="32.5" width="76.5" height="93" as="geometry" />
        </mxCell>
        <mxCell id="dYZ9_OYtiXIPVYzOE8Ey-4" value="Dynamo DB&lt;br&gt;Pod Data" style="points=[[0,0,0],[0.25,0,0],[0.5,0,0],[0.75,0,0],[1,0,0],[0,1,0],[0.25,1,0],[0.5,1,0],[0.75,1,0],[1,1,0],[0,0.25,0],[0,0.5,0],[0,0.75,0],[1,0.25,0],[1,0.5,0],[1,0.75,0]];outlineConnect=0;fontColor=#232F3E;gradientColor=#4D72F3;gradientDirection=north;fillColor=#3334B9;strokeColor=#ffffff;dashed=0;verticalLabelPosition=bottom;verticalAlign=top;align=center;html=1;fontSize=12;fontStyle=0;aspect=fixed;shape=mxgraph.aws4.resourceIcon;resIcon=mxgraph.aws4.dynamodb;" vertex="1" parent="1">
          <mxGeometry x="670" y="40" width="78" height="78" as="geometry" />
        </mxCell>
        <mxCell id="dYZ9_OYtiXIPVYzOE8Ey-7" value="&lt;div&gt;Cognito&lt;/div&gt;&lt;div&gt;User Pool&lt;br&gt;&lt;/div&gt;" style="outlineConnect=0;dashed=0;verticalLabelPosition=bottom;verticalAlign=top;align=center;html=1;shape=mxgraph.aws3.cognito;fillColor=#AD688B;gradientColor=none;" vertex="1" parent="1">
          <mxGeometry x="387" y="230" width="76.5" height="93" as="geometry" />
        </mxCell>
        <mxCell id="dYZ9_OYtiXIPVYzOE8Ey-23" style="edgeStyle=orthogonalEdgeStyle;rounded=0;orthogonalLoop=1;jettySize=auto;html=1;" edge="1" parent="1" source="dYZ9_OYtiXIPVYzOE8Ey-8" target="dYZ9_OYtiXIPVYzOE8Ey-7">
          <mxGeometry relative="1" as="geometry" />
        </mxCell>
        <mxCell id="dYZ9_OYtiXIPVYzOE8Ey-35" value="&lt;div&gt;OpenIDC RP&lt;/div&gt;&lt;div&gt;mod_auth_openidc&lt;br&gt;&lt;/div&gt;" style="edgeLabel;html=1;align=center;verticalAlign=middle;resizable=0;points=[];" vertex="1" connectable="0" parent="dYZ9_OYtiXIPVYzOE8Ey-23">
          <mxGeometry x="-0.1679" y="1" relative="1" as="geometry">
            <mxPoint y="1" as="offset" />
          </mxGeometry>
        </mxCell>
        <mxCell id="dYZ9_OYtiXIPVYzOE8Ey-8" value="EC2 Admin&lt;br&gt;Instance" style="outlineConnect=0;dashed=0;verticalLabelPosition=bottom;verticalAlign=top;align=center;html=1;shape=mxgraph.aws3.ec2;fillColor=#F58534;gradientColor=none;" vertex="1" parent="1">
          <mxGeometry x="173.5" y="230" width="76.5" height="93" as="geometry" />
        </mxCell>
        <mxCell id="dYZ9_OYtiXIPVYzOE8Ey-11" value="Home Assitant&lt;br&gt;POD Server" style="image;html=1;image=img/lib/clip_art/networking/Print_Server_128x128.png" vertex="1" parent="1">
          <mxGeometry x="50" y="410" width="80" height="80" as="geometry" />
        </mxCell>
        <mxCell id="dYZ9_OYtiXIPVYzOE8Ey-33" style="edgeStyle=orthogonalEdgeStyle;rounded=0;orthogonalLoop=1;jettySize=auto;html=1;" edge="1" parent="1" source="dYZ9_OYtiXIPVYzOE8Ey-14" target="dYZ9_OYtiXIPVYzOE8Ey-7">
          <mxGeometry relative="1" as="geometry" />
        </mxCell>
        <mxCell id="dYZ9_OYtiXIPVYzOE8Ey-34" value="&lt;div&gt;External Authentication&lt;/div&gt;&lt;div&gt;Single Sign On&lt;br&gt;&lt;/div&gt;" style="edgeLabel;html=1;align=center;verticalAlign=middle;resizable=0;points=[];" vertex="1" connectable="0" parent="dYZ9_OYtiXIPVYzOE8Ey-33">
          <mxGeometry x="-0.1958" y="-2" relative="1" as="geometry">
            <mxPoint as="offset" />
          </mxGeometry>
        </mxCell>
        <mxCell id="dYZ9_OYtiXIPVYzOE8Ey-14" value="Home Assitant&lt;br&gt;POD Server" style="image;html=1;image=img/lib/clip_art/networking/Print_Server_128x128.png" vertex="1" parent="1">
          <mxGeometry x="290" y="410" width="80" height="80" as="geometry" />
        </mxCell>
        <mxCell id="dYZ9_OYtiXIPVYzOE8Ey-16" value="" style="endArrow=classic;html=1;exitX=0;exitY=0;exitDx=0;exitDy=0;" edge="1" parent="1" source="dYZ9_OYtiXIPVYzOE8Ey-14" target="dYZ9_OYtiXIPVYzOE8Ey-8">
          <mxGeometry width="50" height="50" relative="1" as="geometry">
            <mxPoint x="310" y="340" as="sourcePoint" />
            <mxPoint x="360" y="290" as="targetPoint" />
          </mxGeometry>
        </mxCell>
        <mxCell id="dYZ9_OYtiXIPVYzOE8Ey-19" value="SSH Tunnel" style="edgeLabel;html=1;align=center;verticalAlign=middle;resizable=0;points=[];" vertex="1" connectable="0" parent="dYZ9_OYtiXIPVYzOE8Ey-16">
          <mxGeometry x="-0.282" y="-2" relative="1" as="geometry">
            <mxPoint x="-1" as="offset" />
          </mxGeometry>
        </mxCell>
        <mxCell id="dYZ9_OYtiXIPVYzOE8Ey-18" value="" style="endArrow=classic;html=1;exitX=1;exitY=0;exitDx=0;exitDy=0;" edge="1" parent="1" source="dYZ9_OYtiXIPVYzOE8Ey-11" target="dYZ9_OYtiXIPVYzOE8Ey-8">
          <mxGeometry width="50" height="50" relative="1" as="geometry">
            <mxPoint x="310" y="340" as="sourcePoint" />
            <mxPoint x="120" y="380" as="targetPoint" />
          </mxGeometry>
        </mxCell>
        <mxCell id="dYZ9_OYtiXIPVYzOE8Ey-20" value="SSH Tunnel" style="edgeLabel;html=1;align=center;verticalAlign=middle;resizable=0;points=[];" vertex="1" connectable="0" parent="dYZ9_OYtiXIPVYzOE8Ey-18">
          <mxGeometry x="-0.2462" y="-3" relative="1" as="geometry">
            <mxPoint x="1" as="offset" />
          </mxGeometry>
        </mxCell>
        <mxCell id="dYZ9_OYtiXIPVYzOE8Ey-26" style="edgeStyle=orthogonalEdgeStyle;rounded=0;orthogonalLoop=1;jettySize=auto;html=1;" edge="1" parent="1" source="dYZ9_OYtiXIPVYzOE8Ey-21" target="dYZ9_OYtiXIPVYzOE8Ey-1">
          <mxGeometry relative="1" as="geometry" />
        </mxCell>
        <mxCell id="dYZ9_OYtiXIPVYzOE8Ey-27" value="Admin UI" style="edgeLabel;html=1;align=center;verticalAlign=middle;resizable=0;points=[];" vertex="1" connectable="0" parent="dYZ9_OYtiXIPVYzOE8Ey-26">
          <mxGeometry x="-0.1529" y="-4" relative="1" as="geometry">
            <mxPoint as="offset" />
          </mxGeometry>
        </mxCell>
        <mxCell id="dYZ9_OYtiXIPVYzOE8Ey-31" style="edgeStyle=orthogonalEdgeStyle;rounded=0;orthogonalLoop=1;jettySize=auto;html=1;entryX=0;entryY=0.5;entryDx=0;entryDy=0;entryPerimeter=0;" edge="1" parent="1" source="dYZ9_OYtiXIPVYzOE8Ey-21" target="dYZ9_OYtiXIPVYzOE8Ey-8">
          <mxGeometry relative="1" as="geometry">
            <Array as="points">
              <mxPoint x="65" y="277" />
              <mxPoint x="127" y="277" />
            </Array>
          </mxGeometry>
        </mxCell>
        <mxCell id="dYZ9_OYtiXIPVYzOE8Ey-32" value="&lt;div&gt;Remote HASS&lt;/div&gt;&lt;div&gt;Access&lt;br&gt;&lt;/div&gt;" style="edgeLabel;html=1;align=center;verticalAlign=middle;resizable=0;points=[];" vertex="1" connectable="0" parent="dYZ9_OYtiXIPVYzOE8Ey-31">
          <mxGeometry x="-0.1682" y="1" relative="1" as="geometry">
            <mxPoint as="offset" />
          </mxGeometry>
        </mxCell>
        <mxCell id="dYZ9_OYtiXIPVYzOE8Ey-21" value="Pod Admin/User" style="shape=umlActor;verticalLabelPosition=bottom;verticalAlign=top;html=1;outlineConnect=0;" vertex="1" parent="1">
          <mxGeometry x="50" y="49" width="30" height="60" as="geometry" />
        </mxCell>
      </root>
    </mxGraphModel>
  </diagram>
</mxfile>
